<?xml version="1.0" standalone="no"?>
<svg xmlns:xlink="http://www.w3.org/1999/xlink" id="wave" style="transform:rotate(0deg); transition: 0.3s" viewBox="0 0 1440 490" version="1.1" xmlns="http://www.w3.org/2000/svg"><defs><linearGradient id="sw-gradient-0" x1="0" x2="0" y1="1" y2="0"><stop stop-color="rgba(243, 106, 62, 0.96)" offset="0%"/><stop stop-color="rgba(255, 179, 11, 1)" offset="100%"/></linearGradient></defs><path style="transform:translate(0, 0px); opacity:1" fill="url(#sw-gradient-0)" d="M0,49L120,49C240,49,480,49,720,106.2C960,163,1200,278,1440,302.2C1680,327,1920,261,2160,245C2400,229,2640,261,2880,245C3120,229,3360,163,3600,138.8C3840,114,4080,131,4320,179.7C4560,229,4800,310,5040,351.2C5280,392,5520,392,5760,326.7C6000,261,6240,131,6480,89.8C6720,49,6960,98,7200,155.2C7440,212,7680,278,7920,294C8160,310,8400,278,8640,220.5C8880,163,9120,82,9360,114.3C9600,147,9840,294,10080,359.3C10320,425,10560,408,10800,351.2C11040,294,11280,196,11520,179.7C11760,163,12000,229,12240,277.7C12480,327,12720,359,12960,334.8C13200,310,13440,229,13680,187.8C13920,147,14160,147,14400,187.8C14640,229,14880,310,15120,343C15360,376,15600,359,15840,318.5C16080,278,16320,212,16560,204.2C16800,196,17040,245,17160,269.5L17280,294L17280,490L17160,490C17040,490,16800,490,16560,490C16320,490,16080,490,15840,490C15600,490,15360,490,15120,490C14880,490,14640,490,14400,490C14160,490,13920,490,13680,490C13440,490,13200,490,12960,490C12720,490,12480,490,12240,490C12000,490,11760,490,11520,490C11280,490,11040,490,10800,490C10560,490,10320,490,10080,490C9840,490,9600,490,9360,490C9120,490,8880,490,8640,490C8400,490,8160,490,7920,490C7680,490,7440,490,7200,490C6960,490,6720,490,6480,490C6240,490,6000,490,5760,490C5520,490,5280,490,5040,490C4800,490,4560,490,4320,490C4080,490,3840,490,3600,490C3360,490,3120,490,2880,490C2640,490,2400,490,2160,490C1920,490,1680,490,1440,490C1200,490,960,490,720,490C480,490,240,490,120,490L0,490Z"/></svg>